# xmcd
#
# Track frame offsets: 
#        150
#        14402
#        29397
#        45428
#        56156
#        66202
#        79522
#        99846
#        116525
#        127775
#        142374
#        156554
#        170318
#        185072
#        194265
#        209919
#        220744
#        235289
#        244731
#        259913
#
# Disc length: 3664 seconds
#
# Revision: 1
# Processed by: cddbd v1.5.2PL0 Copyright (c) Steve Scherf et al.
# Submitted via: ExactAudioCopy v1.0b3
#
DISCID=270e4e14
DTITLE=Edith Piaf - Grand Collection
DYEAR=2011
DGENRE=Chanson
TTITLE0=La Vie En Rose
TTITLE1=Padam... Padam
TTITLE2=Sous Le Ciel De Paris
TTITLE3=Non Je Ne Regrette Rien
TTITLE4=Johnny Tu N'Espas Un Ange
TTITLE5=La Foule
TTITLE6=Milord
TTITLE7=C'Est Toi
TTITLE8=Les Flonflons Du Bal
TTITLE9=Les Amants D'Un Jour
TTITLE10=Bravo Pur Le Clown!
TTITLE11=C'Est A Hambourg
TTITLE12=Eden Blues
TTITLE13=La Goualante Du Pauver Jean
TTITLE14=A L'Enseigne De La Fille Sans Caeur
TTITLE15=Le 'Ca Ira'
TTITLE16=Les Amants De Paris
TTITLE17=L'Hpmme A La Moto
TTITLE18=Je Sais Comment
TTITLE19=Heureuse
EXTD=
EXTT0=
EXTT1=
EXTT2=
EXTT3=
EXTT4=
EXTT5=
EXTT6=
EXTT7=
EXTT8=
EXTT9=
EXTT10=
EXTT11=
EXTT12=
EXTT13=
EXTT14=
EXTT15=
EXTT16=
EXTT17=
EXTT18=
EXTT19=
PLAYORDER=
